# AST/ASF file generated using VICON BodyLanguage
# -----------------------------------------------
:version 1.10
:name VICON
:units
  mass 1.0
  length 0.45
  angle deg
:documentation
   .ast/.asf automatically generated from VICON data using
   VICON BodyBuilder and BodyLanguage model FoxedUp or BRILLIANT.MOD
:root
   order TX TY TZ RX RY RZ
   axis XYZ
   position 0 0 0  
   orientation 0 0 0 
:bonedata
  begin
     id 1 
     name lhipjoint
     direction 0.692814 -0.645514 0.321437 
     length 2.38754 
     axis 0 0 0  XYZ
  end
  begin
     id 2 
     name lfemur
     direction 0.34202 -0.939693 0  
     length 6.41921  
     axis 0 0 20  XYZ
    dof rx ry rz
    limits (-160.0 20.0)
           (-70.0 70.0)
           (-60.0 70.0)
  end
  begin
     id 3 
     name ltibia
     direction 0.34202 -0.939693 0   
     length 6.98247   
     axis 0 0 20   XYZ
    dof rx
    limits (-10.0 170.0)
  end
  begin
     id 4 
     name lfoot
     direction 0.0947186 -0.260237 0.960888   
     length 1.83034   
     axis -90 7.62852e-016 20   XYZ
    dof rx rz
    limits (-45.0 90.0)
           (-70.0 20.0)
  end
  begin
     id 5 
     name ltoes
     direction 1.53538e-011 -4.21952e-011 1   
     length 0.920499   
     axis -90 7.62852e-016 20   XYZ
    dof rx
    limits (-90.0 20.0)
  end
  begin
     id 6 
     name rhipjoint
     direction -0.631686 -0.693949 0.345555   
     length 2.2209  
     axis 0 0 0  XYZ 
  end
  begin
     id 7 
     name rfemur
     direction -0.34202 -0.939693 0   
     length 6.49542   
     axis 0 0 -20   XYZ
    dof rx ry rz
    limits (-160.0 20.0)
           (-70.0 70.0)
           (-70.0 60.0)
  end
  begin
     id 8 
     name rtibia
     direction -0.34202 -0.939693 0   
     length 7.21712   
     axis 0 0 -20   XYZ
    dof rx
    limits (-10.0 170.0)
 end
 begin
     id 9 
     name rfoot
     direction -0.0825378 -0.226771 0.970444   
     length 1.89724  
     axis -90 -7.62852e-016 -20   XYZ
    dof rx rz
    limits (-45.0 90.0)
           (-20.0 70.0)
  end
  begin
     id 10 
     name rtoes
     direction -1.53515e-011 -4.22016e-011 1   
     length 0.955868   
     axis -90 -7.62852e-016 -20   XYZ
    dof rx
    limits (-90.0 20.0)
  end
  begin
     id 11 
     name lowerback
     direction -0.0104711 0.984802 -0.173368   
     length 1.84931   
     axis 0 0 0   XYZ
    dof rx ry rz
    limits (-20.0 45.0)
           (-30.0 30.0)
           (-30.0 30.0)
  end
  begin
     id 12 
     name upperback
     direction -0.00286433 0.999996 -0.000382853   
     length 1.85768   
     axis 0 0 0   XYZ
    dof rx ry rz
    limits (-20.0 45.0)
           (-30.0 30.0)
           (-30.0 30.0)
  end
  begin
     id 13 
     name thorax
     direction 0.00167534 0.996793 0.0800069   
     length 1.92   
     axis 0 0 0   XYZ
    dof rx ry rz
    limits (-20.0 45.0)
           (-30.0 30.0)
           (-30.0 30.0)
  end
  begin
     id 14 
     name lowerneck
     direction -0.0672491 0.995415 0.068018   
     length 1.58923   
     axis 0 0 0   XYZ
    dof rx ry rz
    limits (-20.0 45.0)
           (-30.0 30.0)
           (-30.0 30.0)
  end
  begin
     id 15 
     name upperneck
     direction 0.0958019 0.982476 -0.159884   
     length 1.60189   
     axis 0 0 0   XYZ
    dof rx ry rz
    limits (-20.0 45.0)
           (-30.0 30.0)
           (-30.0 30.0)
  end
  begin
     id 16
     name head
     direction 0.032989 0.997338 -0.0650226  
     length 1.61681  
     axis 0 0 0   XYZ
    dof rx ry rz
    limits (-20.0 45.0)
           (-30.0 30.0)
           (-30.0 30.0)
  end
  begin
     id 17 
     name lclavicle
     direction 0.954279 0.298875 -0.00496069  
     length 2.99449  
     axis 0 0 0   XYZ
    dof ry rz
    limits (-20.0 10.0)
           (0.0 20.0)
  end
  begin
     id 18 
     name lhumerus
     direction 1 -4.48985e-011 -4.2057e-027   
     length 4.79185   
     axis 180 -30 -90   XYZ
    dof rx ry rz
    limits (-60.0 90.0)
           (-90.0 90.0)
           (-90.0 90.0)
  end
  begin
     id 19
     name lradius
     direction 1 -4.48945e-011 1.15441e-028   
     length 2.65553   
     axis 180 -30 -90   XYZ
    dof rx
    limits (-10.0 170.0)
  end
  begin
     id 20
     name lwrist
     direction 1 -4.4899e-011 4.8894e-028   
     length 1.32777   
     axis -2.56392e-016 90 90   XYZ
    dof ry
    limits (-180.0 0.0)
 end
  begin
     id 21 
     name lhand
     direction 1 -4.48908e-011 9.7788e-028   
     length 0.743904   
     axis -6.23971e-016 90 90   XYZ
    dof rx rz
    limits (-90.0 90.0)
           (-45.0 45.0)
  end
  begin
     id 22 
     name lfingers
     direction 1 -4.49068e-011 1.95576e-027   
     length 0.599754   
     axis -1.24794e-015 90 90   XYZ
    dof rx
    limits (0.0 90.0)
  end
  begin
     id 23
     name lthumb
     direction 0.707107 -6.34883e-011 0.707107   
     length 0.861131   
     axis -90 45 2.85299e-015   XYZ
    dof rx rz
    limits (-45.0 45.0)
           (-45.0 45.0)
  end
  begin
     id 24 
     name rclavicle
     direction -0.957921 0.286916 0.00811568   
     length 3.06817  
     axis 0 0 0   XYZ 
    dof ry rz
    limits (-10.0 20.0)
           (-20.0 0.0)
  end
  begin
     id 25 
     name rhumerus
     direction -1 -4.48971e-011 -3.07942e-027  
     length 4.77254   
     axis 180 30 90   XYZ
    dof rx ry rz
    limits (-90.0 60.0)
           (-90.0 90.0)
           (-90.0 90.0)
  end
  begin
     id 26 
     name rradius
     direction -1 -4.48957e-011 -9.6815e-028   
     length 2.75995   
     axis 180 30 90   XYZ
    dof rx
    limits (-10.0 170.0)
  end
  begin
     id 27 
     name rwrist
     direction -1 -4.48979e-011 4.8894e-028   
     length 1.37997   
     axis -2.56392e-016 -90 -90   XYZ
    dof ry
    limits (-180.0 0.0)
  end
  begin
     id 28
     name rhand
     direction -1 -4.48906e-011 9.7788e-028   
     length 0.701619   
     axis -6.23971e-016 -90 -90   XYZ
    dof rx rz
    limits (-90.0 90.0)
           (-45.0 45.0)
  end
  begin
     id 29
     name rfingers
     direction -1 -4.49018e-011 1.95576e-027   
     length 0.565663   
     axis -1.24794e-015 -90 -90   XYZ
    dof rx
    limits (0.0 90.0)
  end
  begin
     id 30
     name rthumb
     direction -0.707107 -6.34881e-011 0.707107   
     length 0.812183   
     axis -90 -45 -2.85299e-015   XYZ
    dof rx rz
    limits (-45.0 45.0)
           (-45.0 45.0)
  end
:hierarchy
  begin
    root lhipjoint rhipjoint lowerback
    lhipjoint lfemur
    lfemur ltibia
    ltibia lfoot
    lfoot ltoes
    rhipjoint rfemur
    rfemur rtibia
    rtibia rfoot
    rfoot rtoes
    lowerback upperback
    upperback thorax
    thorax lowerneck lclavicle rclavicle
    lowerneck upperneck
    upperneck head
    lclavicle lhumerus
    lhumerus lradius
    lradius lwrist
    lwrist lhand lthumb
    lhand lfingers
    rclavicle rhumerus
    rhumerus rradius
    rradius rwrist
    rwrist rhand rthumb
    rhand rfingers
  end

#!OML:ASF F:\VICON\USERDATA\INSTALL\rory3\rory3.ASF
:FULLY-SPECIFIED
:DEGREES
1247
root 0.462371 15.7042 -1.66963 11.1634 4.40026 -10.0521
lowerback 29.8288 1.60463 -10.2959
upperback 10.376 -1.50932 -9.61468
thorax -4.58055 -0.691094 -4.41474
lowerneck -3.12036 -12.9024 -20.3607
upperneck 15.7624 -17.6637 12.6939
head 8.38705 -8.86553 5.61649
rclavicle -1.90833e-014 6.04305e-014
rhumerus -46.3347 33.791 -69.5117
rradius 114.821
rwrist 0.966655
rhand 29.0094 16.3411
rfingers 7.12502
rthumb 52.8142 -3.26818
lclavicle -1.90833e-014 6.04305e-014
lhumerus 29.9464 -13.0118 48.7574
lradius 95.2838
lwrist -7.89956
lhand 9.76521 25.4856
lfingers 7.12502
lthumb 34.9036 52.0641
rfemur -28.4553 8.55439 23.8463
rtibia 31.8553
rfoot -10.8486 -12.8135
rtoes -13.7469
lfemur -36.1149 -4.23396 -3.91215
ltibia 41.6235
lfoot -12.0418 -0.546481
ltoes -12.5592
1248
root 0.464654 15.7001 -1.67232 11.0712 4.06116 -10.1547
lowerback 29.9082 1.80156 -10.3708
upperback 10.333 -1.30533 -9.55345
thorax -4.65959 -0.595364 -4.3738
lowerneck -3.17303 -13.0428 -20.4583
upperneck 15.8634 -17.802 12.4957
head 8.44609 -8.94403 5.53464
rclavicle -2.8625e-014 -6.99722e-014
rhumerus -44.9801 33.8324 -70.0908
rradius 114.813
rwrist 1.5489
rhand 27.2798 16.4224
rfingers 7.12502
rthumb 51.2456 -4.1209
lclavicle -2.8625e-014 -6.99722e-014
lhumerus 30.0039 -13.1049 49.0243
lradius 95.2077
lwrist -7.8653
lhand 9.67786 25.8776
lfingers 7.12502
lthumb 34.8207 52.4754
rfemur -28.2975 8.80356 23.9202
rtibia 31.7036
rfoot -10.7234 -12.6671
rtoes -13.6786
lfemur -35.9526 -3.98436 -3.86505
ltibia 41.7762
lfoot -12.2408 -0.43039
ltoes -12.7398
1249
root 0.464239 15.6968 -1.67663 10.9974 3.87669 -10.1731
lowerback 30.3379 2.02346 -10.5288
upperback 10.0262 -1.15253 -9.62128
thorax -4.73869 -0.487599 -4.17112
lowerneck -3.18474 -13.2073 -20.4796
upperneck 15.8936 -18.0097 12.4262
head 8.49093 -9.04634 5.47698
rclavicle -3.49861e-014 9.85972e-014
rhumerus -44.3942 34.1769 -71.3006
rradius 114.732
rwrist 2.20552
rhand 26.2163 16.5307
rfingers 7.12502
rthumb 50.2755 -4.5462
lclavicle -3.49861e-014 9.85972e-014
lhumerus 30.2306 -13.3086 49.1156
lradius 95.0726
lwrist -7.80237
lhand 9.72328 25.8679
lfingers 7.12502
lthumb 34.8638 52.4557
rfemur -28.2082 8.95551 23.924
rtibia 31.6394
rfoot -10.6875 -12.5759
rtoes -13.314
lfemur -35.8798 -3.85447 -3.86939
ltibia 41.9085
lfoot -12.3038 -0.425093
ltoes -12.8204
1250
root 0.46258 15.6912 -1.68411 11.0061 3.88362 -10.3092
lowerback 30.4841 2.11922 -10.2976
upperback 10.0093 -0.991685 -9.57105
thorax -4.82537 -0.406125 -4.29034
lowerneck -3.17789 -13.3944 -20.5011
upperneck 15.8942 -18.2718 12.463
head 8.54255 -9.16909 5.44711
rclavicle -5.40694e-014 -1.49486e-013
rhumerus -44.4936 34.9026 -72.952
rradius 114.572
rwrist 2.81304
rhand 25.6935 16.473
rfingers 7.12502
rthumb 49.7971 -4.85559
lclavicle -5.40694e-014 -1.49486e-013
lhumerus 30.6189 -13.6164 49.1487
lradius 94.8649
lwrist -7.78298
lhand 9.80701 25.4311
lfingers 7.12502
lthumb 34.9433 52.0004
rfemur -28.2589 9.02575 24.0624
rtibia 31.6414
rfoot -10.6977 -12.6171
rtoes -13.4511
lfemur -35.9927 -3.78852 -3.70741
ltibia 42.0135
lfoot -12.261 -0.429866
ltoes -13.0269
1251
root 0.461219 15.689 -1.6894 11.0487 3.90984 -10.3306
lowerback 30.6191 2.26468 -10.1359
upperback 9.93254 -0.794061 -9.52225
thorax -4.96715 -0.30543 -4.38827
lowerneck -2.86071 -13.5313 -20.6219
upperneck 15.8115 -18.5271 12.6086
head 8.53176 -9.30037 5.49019
rclavicle -3.18055e-014 -1.11319e-013
rhumerus -45.5837 35.8758 -75.102
rradius 114.434
rwrist 3.43325
rhand 25.9429 16.709
rfingers 7.12502
rthumb 50.0254 -4.50035
lclavicle -3.18055e-014 -1.11319e-013
lhumerus 31.0398 -14.0736 49.303
lradius 94.6085
lwrist -7.81004
lhand 9.9551 25.0129
lfingers 7.12502
lthumb 35.0838 51.5493
rfemur -28.344 9.02419 24.0781
rtibia 31.6808
rfoot -10.7486 -12.6341
rtoes -13.3515
lfemur -36.1008 -3.76325 -3.68112
ltibia 42.0768
lfoot -12.2192 -0.41573
ltoes -13.1603
1252
root 0.457347 15.6899 -1.6916 11.0404 3.95606 -10.2551
lowerback 30.8335 2.42517 -10.102
upperback 9.85429 -0.626037 -9.47476
thorax -5.13465 -0.218923 -4.41536
lowerneck -2.4198 -13.6187 -20.8794
upperneck 15.6079 -18.7502 12.921
head 8.48499 -9.41966 5.62307
rclavicle 9.54166e-015 -2.22639e-014
rhumerus -47.4239 37.16 -77.7801
rradius 114.146
rwrist 4.18278
rhand 26.7819 17.3394
rfingers 7.12502
rthumb 50.7919 -3.45743
lclavicle 9.54166e-015 -2.22639e-014
lhumerus 31.3182 -14.5831 49.3226
lradius 94.5997
lwrist -7.72694
lhand 9.84047 25.1476
lfingers 7.12502
lthumb 34.975 51.7095
rfemur -28.3655 9.01781 24.0069
rtibia 31.7498
rfoot -10.7987 -12.6696
rtoes -13.2307
lfemur -36.121 -3.75609 -3.7625
ltibia 42.0892
lfoot -12.1915 -0.439344
ltoes -13.1216
1253
root 0.450055 15.6885 -1.69558 11.0386 4.16161 -10.1947
lowerback 31.0752 2.50409 -10.0264
upperback 9.84971 -0.53757 -9.41496
thorax -5.2352 -0.171845 -4.42566
lowerneck -2.17987 -13.7149 -21.0484
upperneck 15.411 -18.9536 13.2115
head 8.46201 -9.51854 5.72593
rclavicle -3.49861e-014 6.67916e-014
rhumerus -49.8732 38.7119 -80.962
rradius 113.711
rwrist 5.09681
rhand 27.0326 17.7168
rfingers 7.12502
rthumb 51.0204 -2.95322
lclavicle -3.49861e-014 6.67916e-014
lhumerus 31.6311 -14.9427 49.1339
lradius 94.8515
lwrist -7.58736
lhand 9.83675 25.3205
lfingers 7.12502
lthumb 34.9715 51.8832
rfemur -28.4232 8.90857 23.9771
rtibia 31.8371
rfoot -10.8157 -12.7423
rtoes -13.5197
lfemur -36.1988 -3.82787 -3.78582
ltibia 42.0336
lfoot -12.0564 -0.549997
ltoes -13.1012
1254
root 0.441214 15.6874 -1.69555 11.0639 4.45886 -10.0806
lowerback 31.2295 2.53536 -10.0388
upperback 9.91527 -0.505469 -9.32704
thorax -5.21953 -0.156385 -4.33945
lowerneck -2.18275 -13.7956 -21.1157
upperneck 15.3186 -19.0768 13.3499
head 8.47605 -9.57201 5.7599
rclavicle 1.27222e-014 -7.4743e-014
rhumerus -52.7864 40.3852 -84.4019
rradius 113.241
rwrist 5.55374
rhand 24.8777 17.2525
rfingers 7.12502
rthumb 49.0489 -4.45569
lclavicle 1.27222e-014 -7.4743e-014
lhumerus 32.1562 -15.0586 49.0112
lradius 94.9038
lwrist -7.46822
lhand 10.0669 25.1394
lfingers 7.12502
lthumb 35.1898 51.651
rfemur -28.5035 8.72769 23.9095
rtibia 31.9679
rfoot -10.8992 -12.8666
rtoes -13.6536
lfemur -36.2817 -3.94941 -3.85162
ltibia 41.9117
lfoot -11.9554 -0.755225
ltoes -12.9053
1255
root 0.433287 15.6907 -1.68999 11.0875 4.66975 -9.86852
lowerback 31.2698 2.62868 -10.2753
upperback 10.032 -0.434594 -9.2118
thorax -5.08991 -0.129518 -4.11844
lowerneck -2.17991 -13.8435 -21.1391
upperneck 15.1517 -19.1336 13.3941
head 8.4372 -9.59627 5.76854
rclavicle -4.45278e-014 -2.70347e-014
rhumerus -56.0251 41.8714 -87.9439
rradius 112.688
rwrist 5.51454
rhand 19.9566 16.5052
rfingers 7.12502
rthumb 44.4946 -7.19072
lclavicle -4.45278e-014 -2.70347e-014
lhumerus 32.795 -15.1048 48.8806
lradius 94.803
lwrist -7.1473
lhand 10.0897 25.0476
lfingers 7.12502
lthumb 35.2114 51.5541
rfemur -28.5676 8.59804 23.7337
rtibia 32.1424
rfoot -11.0348 -12.9854
rtoes -13.535
lfemur -36.28 -4.04162 -4.04847
ltibia 41.7685
lfoot -11.9248 -0.895524
ltoes -12.8424
1256
root 0.424964 15.693 -1.68552 11.1794 4.90844 -9.63418
lowerback 31.1784 2.76334 -10.679
upperback 10.1797 -0.324334 -8.96817
thorax -4.86305 -0.092969 -3.68482
lowerneck -2.11951 -13.8865 -21.242
upperneck 14.8964 -19.1665 13.379
head 8.35654 -9.61726 5.77636
rclavicle -6.36111e-015 2.54444e-014
rhumerus -59.6056 43.0025 -91.4255
rradius 112.042
rwrist 5.31345
rhand 24.9686 16.9088
rfingers 7.12502
rthumb 49.1324 -4.75786
lclavicle -6.36111e-015 2.54444e-014
lhumerus 33.3568 -15.097 48.8933
lradius 94.768
lwrist -6.81264
lhand 10.0873 25.022
lfingers 7.12502
lthumb 35.2091 51.529
rfemur -28.7357 8.53374 23.505
rtibia 32.3651
rfoot -11.1925 -13.1629
rtoes -13.2975
lfemur -36.3626 -4.13314 -4.25888
ltibia 41.6026
lfoot -11.8183 -1.06351
ltoes -12.6406
1257
root 0.415032 15.6904 -1.68417 11.2768 5.30849 -9.5051
lowerback 31.1307 2.76595 -10.8882
upperback 10.3042 -0.332401 -8.75443
thorax -4.69126 -0.108604 -3.34627
lowerneck -1.94942 -13.873 -21.3665
upperneck 14.6689 -19.151 13.3994
head 8.26333 -9.61985 5.81575
rclavicle -3.49861e-014 -7.4743e-014
rhumerus -63.4826 43.6949 -95.0968
rradius 111.303
rwrist 5.08533
rhand 27.0812 17.0402
rfingers 7.12502
rthumb 51.0647 -3.60502
lclavicle -3.49861e-014 -7.4743e-014
lhumerus 33.7434 -15.0365 48.8339
lradius 94.8446
lwrist -6.58303
lhand 10.2239 24.882
lfingers 7.12502
lthumb 35.3387 51.3583
rfemur -28.9338 8.4668 23.3897
rtibia 32.5997
rfoot -11.3473 -13.4963
rtoes -13.3457
lfemur -36.5494 -4.26867 -4.33306
ltibia 41.4363
lfoot -11.6826 -1.30634
ltoes -12.8307
1258
root 0.405215 15.6901 -1.68186 11.3744 5.69339 -9.29469
lowerback 31.1314 2.69126 -10.885
upperback 10.4476 -0.400526 -8.81048
thorax -4.53584 -0.142984 -3.38449
lowerneck -1.89304 -13.8822 -21.3802
upperneck 14.6988 -19.2057 13.5634
head 8.29268 -9.6413 5.86724
rclavicle -3.18055e-015 1.38354e-013
rhumerus -67.1937 43.6553 -98.7596
rradius 110.445
rwrist 4.81792
rhand 28.116 16.9199
rfingers 7.12502
rthumb 52.0055 -3.18252
lclavicle -3.18055e-015 1.38354e-013
lhumerus 34.302 -15.0757 48.4598
lradius 94.9051
lwrist -6.32781
lhand 10.1444 24.8425
lfingers 7.12502
lthumb 35.2633 51.3367
rfemur -29.1411 8.3693 23.1936
rtibia 32.8568
rfoot -11.45 -13.8211
rtoes -13.4916
lfemur -36.7099 -4.44291 -4.49849
ltibia 41.247
lfoot -11.4978 -1.45185
ltoes -12.5186
